solid CATIA STL
  facet normal  -0.000000e+000  0.000000e+000  1.000000e+000
    outer loop
      vertex  1.196181e-001  2.196746e+000  1.400000e+001
      vertex -2.860695e-001  2.181322e+000  1.400000e+001
      vertex  5.212324e-001  2.137362e+000  1.400000e+001
    endloop
  endfacet
  facet normal  0.000000e+000  0.000000e+000  1.000000e+000
    outer loop
      vertex  5.212324e-001  2.137362e+000  1.400000e+001
      vertex -2.860695e-001  2.181322e+000  1.400000e+001
      vertex -6.820155e-001  2.091615e+000  1.400000e+001
    endloop
  endfacet
  facet normal  -0.000000e+000  0.000000e+000  1.000000e+000
    outer loop
      vertex  5.212324e-001  2.137362e+000  1.400000e+001
      vertex -6.820155e-001  2.091615e+000  1.400000e+001
      vertex  9.050967e-001  2.005193e+000  1.400000e+001
    endloop
  endfacet
  facet normal  0.000000e+000  0.000000e+000  1.000000e+000
    outer loop
      vertex  9.050967e-001  2.005193e+000  1.400000e+001
      vertex -6.820155e-001  2.091615e+000  1.400000e+001
      vertex -1.054736e+000  1.930682e+000  1.400000e+001
    endloop
  endfacet
  facet normal  -0.000000e+000  0.000000e+000  9.999999e-001
    outer loop
      vertex  9.050967e-001  2.005193e+000  1.400000e+001
      vertex -1.054736e+000  1.930682e+000  1.400000e+001
      vertex  1.258139e+000  1.804740e+000  1.400000e+001
    endloop
  endfacet
  facet normal  0.000000e+000  0.000000e+000  1.000000e+000
    outer loop
      vertex  1.258139e+000  1.804740e+000  1.400000e+001
      vertex -1.054736e+000  1.930682e+000  1.400000e+001
      vertex -1.391539e+000  1.704001e+000  1.400000e+001
    endloop
  endfacet
  facet normal  -0.000000e+000  0.000000e+000  1.000000e+000
    outer loop
      vertex  1.258139e+000  1.804740e+000  1.400000e+001
      vertex -1.391539e+000  1.704001e+000  1.400000e+001
      vertex  1.568337e+000  1.542828e+000  1.400000e+001
    endloop
  endfacet
  facet normal  0.000000e+000  0.000000e+000  1.000000e+000
    outer loop
      vertex  1.568337e+000  1.542828e+000  1.400000e+001
      vertex -1.391539e+000  1.704001e+000  1.400000e+001
      vertex -1.680955e+000  1.419292e+000  1.400000e+001
    endloop
  endfacet
  facet normal  -0.000000e+000  0.000000e+000  1.000000e+000
    outer loop
      vertex  1.568337e+000  1.542828e+000  1.400000e+001
      vertex -1.680955e+000  1.419292e+000  1.400000e+001
      vertex  1.825127e+000  1.228378e+000  1.400000e+001
    endloop
  endfacet
  facet normal  0.000000e+000  0.000000e+000  1.000000e+000
    outer loop
      vertex  1.825127e+000  1.228378e+000  1.400000e+001
      vertex -1.680955e+000  1.419292e+000  1.400000e+001
      vertex -1.913128e+000  1.086252e+000  1.400000e+001
    endloop
  endfacet
  facet normal  -0.000000e+000  0.000000e+000  1.000000e+000
    outer loop
      vertex  1.825127e+000  1.228378e+000  1.400000e+001
      vertex -1.913128e+000  1.086252e+000  1.400000e+001
      vertex  2.019764e+000  8.720961e-001  1.400000e+001
    endloop
  endfacet
  facet normal  0.000000e+000  0.000000e+000  1.000000e+000
    outer loop
      vertex  2.019764e+000  8.720961e-001  1.400000e+001
      vertex -1.913128e+000  1.086252e+000  1.400000e+001
      vertex -2.080151e+000  7.162198e-001  1.400000e+001
    endloop
  endfacet
  facet normal  -0.000000e+000  0.000000e+000  1.000000e+000
    outer loop
      vertex  2.019764e+000  8.720961e-001  1.400000e+001
      vertex -2.080151e+000  7.162198e-001  1.400000e+001
      vertex  2.145621e+000  4.861162e-001  1.400000e+001
    endloop
  endfacet
  facet normal  0.000000e+000  0.000000e+000  1.000000e+000
    outer loop
      vertex  2.145621e+000  4.861162e-001  1.400000e+001
      vertex -2.080151e+000  7.162198e-001  1.400000e+001
      vertex -2.176338e+000  3.217980e-001  1.400000e+001
    endloop
  endfacet
  facet normal  -0.000000e+000  0.000000e+000  1.000000e+000
    outer loop
      vertex  2.145621e+000  4.861162e-001  1.400000e+001
      vertex -2.176338e+000  3.217980e-001  1.400000e+001
      vertex  2.198412e+000  8.358226e-002  1.400000e+001
    endloop
  endfacet
  facet normal  0.000000e+000  0.000000e+000  9.999999e-001
    outer loop
      vertex  2.198412e+000  8.358226e-002  1.400000e+001
      vertex -2.176338e+000  3.217980e-001  1.400000e+001
      vertex -2.198412e+000 -8.358226e-002  1.400000e+001
    endloop
  endfacet
  facet normal  -0.000000e+000  0.000000e+000  9.999999e-001
    outer loop
      vertex  2.198412e+000  8.358226e-002  1.400000e+001
      vertex -2.198412e+000 -8.358226e-002  1.400000e+001
      vertex  2.176338e+000 -3.217980e-001  1.400000e+001
    endloop
  endfacet
  facet normal  0.000000e+000  0.000000e+000  1.000000e+000
    outer loop
      vertex  2.176338e+000 -3.217980e-001  1.400000e+001
      vertex -2.198412e+000 -8.358226e-002  1.400000e+001
      vertex -2.145621e+000 -4.861162e-001  1.400000e+001
    endloop
  endfacet
  facet normal  -0.000000e+000  0.000000e+000  1.000000e+000
    outer loop
      vertex  2.176338e+000 -3.217980e-001  1.400000e+001
      vertex -2.145621e+000 -4.861162e-001  1.400000e+001
      vertex  2.080151e+000 -7.162198e-001  1.400000e+001
    endloop
  endfacet
  facet normal  0.000000e+000  0.000000e+000  1.000000e+000
    outer loop
      vertex  2.080151e+000 -7.162198e-001  1.400000e+001
      vertex -2.145621e+000 -4.861162e-001  1.400000e+001
      vertex -2.019764e+000 -8.720961e-001  1.400000e+001
    endloop
  endfacet
  facet normal  -0.000000e+000  0.000000e+000  1.000000e+000
    outer loop
      vertex  2.080151e+000 -7.162198e-001  1.400000e+001
      vertex -2.019764e+000 -8.720961e-001  1.400000e+001
      vertex  1.913128e+000 -1.086252e+000  1.400000e+001
    endloop
  endfacet
  facet normal  0.000000e+000  0.000000e+000  1.000000e+000
    outer loop
      vertex  1.913128e+000 -1.086252e+000  1.400000e+001
      vertex -2.019764e+000 -8.720961e-001  1.400000e+001
      vertex -1.825127e+000 -1.228378e+000  1.400000e+001
    endloop
  endfacet
  facet normal  -0.000000e+000  0.000000e+000  1.000000e+000
    outer loop
      vertex  1.913128e+000 -1.086252e+000  1.400000e+001
      vertex -1.825127e+000 -1.228378e+000  1.400000e+001
      vertex  1.680955e+000 -1.419292e+000  1.400000e+001
    endloop
  endfacet
  facet normal  0.000000e+000  0.000000e+000  1.000000e+000
    outer loop
      vertex  1.680955e+000 -1.419292e+000  1.400000e+001
      vertex -1.825127e+000 -1.228378e+000  1.400000e+001
      vertex -1.568337e+000 -1.542828e+000  1.400000e+001
    endloop
  endfacet
  facet normal  -0.000000e+000  0.000000e+000  1.000000e+000
    outer loop
      vertex  1.680955e+000 -1.419292e+000  1.400000e+001
      vertex -1.568337e+000 -1.542828e+000  1.400000e+001
      vertex  1.391539e+000 -1.704001e+000  1.400000e+001
    endloop
  endfacet
  facet normal  0.000000e+000  0.000000e+000  1.000000e+000
    outer loop
      vertex  1.391539e+000 -1.704001e+000  1.400000e+001
      vertex -1.568337e+000 -1.542828e+000  1.400000e+001
      vertex -1.258139e+000 -1.804740e+000  1.400000e+001
    endloop
  endfacet
  facet normal  -0.000000e+000  0.000000e+000  1.000000e+000
    outer loop
      vertex  1.391539e+000 -1.704001e+000  1.400000e+001
      vertex -1.258139e+000 -1.804740e+000  1.400000e+001
      vertex  1.054736e+000 -1.930682e+000  1.400000e+001
    endloop
  endfacet
  facet normal  0.000000e+000  0.000000e+000  9.999999e-001
    outer loop
      vertex  1.054736e+000 -1.930682e+000  1.400000e+001
      vertex -1.258139e+000 -1.804740e+000  1.400000e+001
      vertex -9.050967e-001 -2.005193e+000  1.400000e+001
    endloop
  endfacet
  facet normal  -0.000000e+000  0.000000e+000  1.000000e+000
    outer loop
      vertex  1.054736e+000 -1.930682e+000  1.400000e+001
      vertex -9.050967e-001 -2.005193e+000  1.400000e+001
      vertex  6.820155e-001 -2.091615e+000  1.400000e+001
    endloop
  endfacet
  facet normal  0.000000e+000  0.000000e+000  1.000000e+000
    outer loop
      vertex  6.820155e-001 -2.091615e+000  1.400000e+001
      vertex -9.050967e-001 -2.005193e+000  1.400000e+001
      vertex -5.212324e-001 -2.137362e+000  1.400000e+001
    endloop
  endfacet
  facet normal  -0.000000e+000  0.000000e+000  1.000000e+000
    outer loop
      vertex  6.820155e-001 -2.091615e+000  1.400000e+001
      vertex -5.212324e-001 -2.137362e+000  1.400000e+001
      vertex  2.860695e-001 -2.181322e+000  1.400000e+001
    endloop
  endfacet
  facet normal  0.000000e+000  0.000000e+000  1.000000e+000
    outer loop
      vertex  2.860695e-001 -2.181322e+000  1.400000e+001
      vertex -5.212324e-001 -2.137362e+000  1.400000e+001
      vertex -1.196181e-001 -2.196746e+000  1.400000e+001
    endloop
  endfacet
  facet normal -9.673302e-016 -6.542098e-015  1.000000e+000
    outer loop
      vertex -5.212324e-001 -2.137362e+000  0.000000e+000
      vertex -2.059440e+000 -2.181446e+000 -1.776357e-015
      vertex -1.196181e-001 -2.196746e+000  0.000000e+000
    endloop
  endfacet
  facet normal -9.247870e-016 -1.148063e-015  1.000000e+000
    outer loop
      vertex -1.692831e+000 -2.476756e+000 -1.776357e-015
      vertex -1.196181e-001 -2.196746e+000  0.000000e+000
      vertex -2.059440e+000 -2.181446e+000 -1.776357e-015
    endloop
  endfacet
  facet normal  5.727333e-016 -2.115613e-015  1.000000e+000
    outer loop
      vertex  2.860695e-001 -2.181322e+000  0.000000e+000
      vertex  5.543185e-001 -2.948344e+000 -1.776357e-015
      vertex  1.008717e+000 -2.825330e+000 -1.776357e-015
    endloop
  endfacet
  facet normal  8.227212e-016 -1.835099e-015  1.000000e+000
    outer loop
      vertex  2.860695e-001 -2.181322e+000  0.000000e+000
      vertex  1.008717e+000 -2.825330e+000 -1.776357e-015
      vertex  1.438277e+000 -2.632748e+000 -1.776357e-015
    endloop
  endfacet
  facet normal  9.636152e-016 -1.475485e-015  9.999999e-001
    outer loop
      vertex  2.860695e-001 -2.181322e+000  0.000000e+000
      vertex  1.438277e+000 -2.632748e+000 -1.776357e-015
      vertex  1.832422e+000 -2.375338e+000 -1.776357e-015
    endloop
  endfacet
  facet normal  1.008885e-015 -1.114680e-015  1.000000e+000
    outer loop
      vertex  2.860695e-001 -2.181322e+000  0.000000e+000
      vertex  1.832422e+000 -2.375338e+000 -1.776357e-015
      vertex  2.181446e+000 -2.059440e+000 -1.776357e-015
    endloop
  endfacet
  facet normal  1.308633e-015 -5.776055e-015  9.999999e-001
    outer loop
      vertex  2.860695e-001 -2.181322e+000  0.000000e+000
      vertex  2.181446e+000 -2.059440e+000 -1.776357e-015
      vertex  6.820155e-001 -2.091615e+000  0.000000e+000
    endloop
  endfacet
  facet normal  9.673300e-016  6.542098e-015  1.000000e+000
    outer loop
      vertex  1.196181e-001  2.196746e+000  0.000000e+000
      vertex  5.212324e-001  2.137362e+000  0.000000e+000
      vertex  2.059440e+000  2.181446e+000 -1.776357e-015
    endloop
  endfacet
  facet normal  9.247870e-016  1.148063e-015  1.000000e+000
    outer loop
      vertex  1.196181e-001  2.196746e+000  0.000000e+000
      vertex  2.059440e+000  2.181446e+000 -1.776357e-015
      vertex  1.692831e+000  2.476756e+000 -1.776357e-015
    endloop
  endfacet
  facet normal  8.618447e-016  1.501697e-015  1.000000e+000
    outer loop
      vertex  1.196181e-001  2.196746e+000  0.000000e+000
      vertex  1.692831e+000  2.476756e+000 -1.776357e-015
      vertex  1.284540e+000  2.711081e+000 -1.776357e-015
    endloop
  endfacet
  facet normal  7.062441e-016  1.854118e-015  1.000000e+000
    outer loop
      vertex  1.196181e-001  2.196746e+000  0.000000e+000
      vertex  1.284540e+000  2.711081e+000 -1.776357e-015
      vertex  8.446186e-001  2.878649e+000 -1.776357e-015
    endloop
  endfacet
  facet normal  4.469579e-016  2.129792e-015  1.000000e+000
    outer loop
      vertex  1.196181e-001  2.196746e+000  0.000000e+000
      vertex  8.446186e-001  2.878649e+000 -1.776357e-015
      vertex  3.839000e-001  2.975335e+000 -1.776357e-015
    endloop
  endfacet
  facet normal  1.117743e-016  2.243565e-015  1.000000e+000
    outer loop
      vertex  1.196181e-001  2.196746e+000  0.000000e+000
      vertex  3.839000e-001  2.975335e+000 -1.776357e-015
      vertex -8.627141e-002  2.998759e+000 -1.776357e-015
    endloop
  endfacet
  facet normal -2.321544e-016  2.155273e-015  1.000000e+000
    outer loop
      vertex  1.196181e-001  2.196746e+000  0.000000e+000
      vertex -8.627141e-002  2.998759e+000 -1.776357e-015
      vertex -5.543185e-001  2.948344e+000 -1.776357e-015
    endloop
  endfacet
  facet normal -8.689432e-017  2.285524e-015  1.000000e+000
    outer loop
      vertex  1.196181e-001  2.196746e+000  0.000000e+000
      vertex -5.543185e-001  2.948344e+000 -1.776357e-015
      vertex -2.860695e-001  2.181322e+000  0.000000e+000
    endloop
  endfacet
  facet normal  2.404016e-016 -2.231838e-015  9.999999e-001
    outer loop
      vertex  5.543185e-001 -2.948344e+000 -1.776357e-015
      vertex  2.860695e-001 -2.181322e+000  0.000000e+000
      vertex  8.627141e-002 -2.998759e+000 -1.776357e-015
    endloop
  endfacet
  facet normal  8.339419e-017 -2.193463e-015  1.000000e+000
    outer loop
      vertex  8.627141e-002 -2.998759e+000 -1.776357e-015
      vertex  2.860695e-001 -2.181322e+000  0.000000e+000
      vertex -1.196181e-001 -2.196746e+000  0.000000e+000
    endloop
  endfacet
  facet normal -1.117743e-016 -2.243565e-015  1.000000e+000
    outer loop
      vertex  8.627141e-002 -2.998759e+000 -1.776357e-015
      vertex -1.196181e-001 -2.196746e+000  0.000000e+000
      vertex -3.839000e-001 -2.975335e+000 -1.776357e-015
    endloop
  endfacet
  facet normal -7.695413e-016 -2.020295e-015  1.000000e+000
    outer loop
      vertex -3.839000e-001 -2.975335e+000 -1.776357e-015
      vertex -1.196181e-001 -2.196746e+000  0.000000e+000
      vertex -1.692831e+000 -2.476756e+000 -1.776357e-015
    endloop
  endfacet
  facet normal  0.000000e+000  0.000000e+000  1.000000e+000
    outer loop
      vertex -3.839000e-001 -2.975335e+000 -1.776357e-015
      vertex -1.692831e+000 -2.476756e+000 -1.776357e-015
      vertex -8.446186e-001 -2.878649e+000 -1.776357e-015
    endloop
  endfacet
  facet normal  0.000000e+000  0.000000e+000  1.000000e+000
    outer loop
      vertex -8.446186e-001 -2.878649e+000 -1.776357e-015
      vertex -1.692831e+000 -2.476756e+000 -1.776357e-015
      vertex -1.284540e+000 -2.711081e+000 -1.776357e-015
    endloop
  endfacet
  facet normal  0.000000e+000  0.000000e+000  1.000000e+000
    outer loop
      vertex -1.008717e+000  2.825330e+000 -1.776357e-015
      vertex -1.438277e+000  2.632748e+000 -1.776357e-015
      vertex -5.543185e-001  2.948344e+000 -1.776357e-015
    endloop
  endfacet
  facet normal  0.000000e+000  0.000000e+000  1.000000e+000
    outer loop
      vertex -5.543185e-001  2.948344e+000 -1.776357e-015
      vertex -1.438277e+000  2.632748e+000 -1.776357e-015
      vertex -1.832422e+000  2.375338e+000 -1.776357e-015
    endloop
  endfacet
  facet normal -8.975532e-016  2.002014e-015  1.000000e+000
    outer loop
      vertex -5.543185e-001  2.948344e+000 -1.776357e-015
      vertex -1.832422e+000  2.375338e+000 -1.776357e-015
      vertex -2.860695e-001  2.181322e+000  0.000000e+000
    endloop
  endfacet
  facet normal -7.393159e-016  3.263199e-015  1.000000e+000
    outer loop
      vertex -2.860695e-001  2.181322e+000  0.000000e+000
      vertex -1.832422e+000  2.375338e+000 -1.776357e-015
      vertex -6.820155e-001  2.091615e+000  0.000000e+000
    endloop
  endfacet
  facet normal -1.213457e-015  1.340705e-015  1.000000e+000
    outer loop
      vertex -6.820155e-001  2.091615e+000  0.000000e+000
      vertex -1.832422e+000  2.375338e+000 -1.776357e-015
      vertex -2.181446e+000  2.059440e+000 -1.776357e-015
    endloop
  endfacet
  facet normal -1.246643e-015  2.887208e-015  1.000000e+000
    outer loop
      vertex -6.820155e-001  2.091615e+000  0.000000e+000
      vertex -2.181446e+000  2.059440e+000 -1.776357e-015
      vertex -1.054736e+000  1.930682e+000  0.000000e+000
    endloop
  endfacet
  facet normal -1.443691e-015  1.162921e-015  1.000000e+000
    outer loop
      vertex -1.054736e+000  1.930682e+000  0.000000e+000
      vertex -2.181446e+000  2.059440e+000 -1.776357e-015
      vertex -2.476756e+000  1.692831e+000 -1.776357e-015
    endloop
  endfacet
  facet normal -1.662288e-015  2.469832e-015  1.000000e+000
    outer loop
      vertex -1.054736e+000  1.930682e+000  0.000000e+000
      vertex -2.476756e+000  1.692831e+000 -1.776357e-015
      vertex -1.391539e+000  1.704001e+000  0.000000e+000
    endloop
  endfacet
  facet normal -1.654174e-015  1.681523e-015  1.000000e+000
    outer loop
      vertex -1.391539e+000  1.704001e+000  0.000000e+000
      vertex -2.476756e+000  1.692831e+000 -1.776357e-015
      vertex -1.680955e+000  1.419292e+000  0.000000e+000
    endloop
  endfacet
  facet normal -1.864375e-015  1.069991e-015  1.000000e+000
    outer loop
      vertex -1.680955e+000  1.419292e+000  0.000000e+000
      vertex -2.476756e+000  1.692831e+000 -1.776357e-015
      vertex -2.711081e+000  1.284540e+000 -1.776357e-015
    endloop
  endfacet
  facet normal -1.897441e-015  1.322764e-015  1.000000e+000
    outer loop
      vertex -1.680955e+000  1.419292e+000  0.000000e+000
      vertex -2.711081e+000  1.284540e+000 -1.776357e-015
      vertex -1.913128e+000  1.086252e+000  0.000000e+000
    endloop
  endfacet
  facet normal -2.033650e-015  7.746287e-016  1.000000e+000
    outer loop
      vertex -1.913128e+000  1.086252e+000  0.000000e+000
      vertex -2.711081e+000  1.284540e+000 -1.776357e-015
      vertex -2.878649e+000  8.446186e-001 -1.776357e-015
    endloop
  endfacet
  facet normal -2.074083e-015  9.361925e-016  1.000000e+000
    outer loop
      vertex -1.913128e+000  1.086252e+000  0.000000e+000
      vertex -2.878649e+000  8.446186e-001 -1.776357e-015
      vertex -2.080151e+000  7.162198e-001  0.000000e+000
    endloop
  endfacet
  facet normal -2.140679e-015  5.220407e-016  1.000000e+000
    outer loop
      vertex -2.080151e+000  7.162198e-001  0.000000e+000
      vertex -2.878649e+000  8.446186e-001 -1.776357e-015
      vertex -2.176338e+000  3.217980e-001  0.000000e+000
    endloop
  endfacet
  facet normal -2.187550e-015  4.590790e-016  9.999999e-001
    outer loop
      vertex -2.176338e+000  3.217980e-001  0.000000e+000
      vertex -2.878649e+000  8.446186e-001 -1.776357e-015
      vertex -2.975335e+000  3.839000e-001 -1.776357e-015
    endloop
  endfacet
  facet normal -2.213862e-015  1.205504e-016  1.000000e+000
    outer loop
      vertex -2.176338e+000  3.217980e-001  0.000000e+000
      vertex -2.975335e+000  3.839000e-001 -1.776357e-015
      vertex -2.198412e+000 -8.358226e-002  0.000000e+000
    endloop
  endfacet
  facet normal -2.219853e-015  1.105929e-016  1.000000e+000
    outer loop
      vertex -2.198412e+000 -8.358226e-002  0.000000e+000
      vertex -2.975335e+000  3.839000e-001 -1.776357e-015
      vertex -2.998759e+000 -8.627141e-002 -1.776357e-015
    endloop
  endfacet
  facet normal -2.218504e-015 -2.909462e-016  1.000000e+000
    outer loop
      vertex -2.198412e+000 -8.358226e-002  0.000000e+000
      vertex -2.998759e+000 -8.627141e-002 -1.776357e-015
      vertex -2.145621e+000 -4.861162e-001  0.000000e+000
    endloop
  endfacet
  facet normal -2.192847e-015 -2.362016e-016  1.000000e+000
    outer loop
      vertex -2.145621e+000 -4.861162e-001  0.000000e+000
      vertex -2.998759e+000 -8.627141e-002 -1.776357e-015
      vertex -2.948344e+000 -5.543185e-001 -1.776357e-015
    endloop
  endfacet
  facet normal -2.153261e-015 -7.021161e-016  1.000000e+000
    outer loop
      vertex -2.145621e+000 -4.861162e-001  0.000000e+000
      vertex -2.948344e+000 -5.543185e-001 -1.776357e-015
      vertex -2.019764e+000 -8.720961e-001  0.000000e+000
    endloop
  endfacet
  facet normal -2.108307e-015 -5.707556e-016  1.000000e+000
    outer loop
      vertex -2.019764e+000 -8.720961e-001  0.000000e+000
      vertex -2.948344e+000 -5.543185e-001 -1.776357e-015
      vertex -2.825330e+000 -1.008717e+000 -1.776357e-015
    endloop
  endfacet
  facet normal -2.018124e-015 -1.102506e-015  1.000000e+000
    outer loop
      vertex -2.019764e+000 -8.720961e-001  0.000000e+000
      vertex -2.825330e+000 -1.008717e+000 -1.776357e-015
      vertex -1.825127e+000 -1.228378e+000  0.000000e+000
    endloop
  endfacet
  facet normal -1.969957e-015 -8.831813e-016  9.999999e-001
    outer loop
      vertex -1.825127e+000 -1.228378e+000  0.000000e+000
      vertex -2.825330e+000 -1.008717e+000 -1.776357e-015
      vertex -2.632748e+000 -1.438277e+000 -1.776357e-015
    endloop
  endfacet
  facet normal -1.814404e-015 -1.481697e-015  1.000000e+000
    outer loop
      vertex -1.825127e+000 -1.228378e+000  0.000000e+000
      vertex -2.632748e+000 -1.438277e+000 -1.776357e-015
      vertex -1.568337e+000 -1.542828e+000  0.000000e+000
    endloop
  endfacet
  facet normal -1.888568e-015 -2.236747e-015  9.999999e-001
    outer loop
      vertex -1.568337e+000 -1.542828e+000  0.000000e+000
      vertex -2.632748e+000 -1.438277e+000 -1.776357e-015
      vertex -1.258139e+000 -1.804740e+000  0.000000e+000
    endloop
  endfacet
  facet normal -1.564690e-015 -1.021873e-015  9.999999e-001
    outer loop
      vertex -1.258139e+000 -1.804740e+000  0.000000e+000
      vertex -2.632748e+000 -1.438277e+000 -1.776357e-015
      vertex -2.375338e+000 -1.832422e+000 -1.776357e-015
    endloop
  endfacet
  facet normal -1.523524e-015 -2.683262e-015  1.000000e+000
    outer loop
      vertex -1.258139e+000 -1.804740e+000  0.000000e+000
      vertex -2.375338e+000 -1.832422e+000 -1.776357e-015
      vertex -9.050967e-001 -2.005193e+000  0.000000e+000
    endloop
  endfacet
  facet normal -1.352006e-015 -1.223685e-015  1.000000e+000
    outer loop
      vertex -9.050967e-001 -2.005193e+000  0.000000e+000
      vertex -2.375338e+000 -1.832422e+000 -1.776357e-015
      vertex -2.059440e+000 -2.181446e+000 -1.776357e-015
    endloop
  endfacet
  facet normal -1.066085e-015 -3.096283e-015  1.000000e+000
    outer loop
      vertex -9.050967e-001 -2.005193e+000  0.000000e+000
      vertex -2.059440e+000 -2.181446e+000 -1.776357e-015
      vertex -5.212324e-001 -2.137362e+000  0.000000e+000
    endloop
  endfacet
  facet normal  1.125625e-015  1.018790e-015  1.000000e+000
    outer loop
      vertex  2.059440e+000  2.181446e+000 -1.776357e-015
      vertex  5.212324e-001  2.137362e+000  0.000000e+000
      vertex  2.375338e+000  1.832422e+000 -1.776357e-015
    endloop
  endfacet
  facet normal  1.834223e-015  5.327224e-015  1.000000e+000
    outer loop
      vertex  2.375338e+000  1.832422e+000 -1.776357e-015
      vertex  5.212324e-001  2.137362e+000  0.000000e+000
      vertex  9.050967e-001  2.005193e+000  0.000000e+000
    endloop
  endfacet
  facet normal  1.523524e-015  2.683262e-015  1.000000e+000
    outer loop
      vertex  2.375338e+000  1.832422e+000 -1.776357e-015
      vertex  9.050967e-001  2.005193e+000  0.000000e+000
      vertex  1.258139e+000  1.804740e+000  0.000000e+000
    endloop
  endfacet
  facet normal  1.564690e-015  1.021873e-015  9.999999e-001
    outer loop
      vertex  2.375338e+000  1.832422e+000 -1.776357e-015
      vertex  1.258139e+000  1.804740e+000  0.000000e+000
      vertex  2.632748e+000  1.438277e+000 -1.776357e-015
    endloop
  endfacet
  facet normal  1.888568e-015  2.236747e-015  9.999999e-001
    outer loop
      vertex  2.632748e+000  1.438277e+000 -1.776357e-015
      vertex  1.258139e+000  1.804740e+000  0.000000e+000
      vertex  1.568337e+000  1.542828e+000  0.000000e+000
    endloop
  endfacet
  facet normal  1.745741e-015  7.826596e-016  1.000000e+000
    outer loop
      vertex  2.632748e+000  1.438277e+000 -1.776357e-015
      vertex  1.568337e+000  1.542828e+000  0.000000e+000
      vertex  2.825330e+000  1.008717e+000 -1.776357e-015
    endloop
  endfacet
  facet normal  2.164121e-015  1.767287e-015  1.000000e+000
    outer loop
      vertex  2.825330e+000  1.008717e+000 -1.776357e-015
      vertex  1.568337e+000  1.542828e+000  0.000000e+000
      vertex  1.825127e+000  1.228378e+000  0.000000e+000
    endloop
  endfacet
  facet normal  2.018124e-015  1.102506e-015  1.000000e+000
    outer loop
      vertex  2.825330e+000  1.008717e+000 -1.776357e-015
      vertex  1.825127e+000  1.228378e+000  0.000000e+000
      vertex  2.019764e+000  8.720961e-001  0.000000e+000
    endloop
  endfacet
  facet normal  2.108307e-015  5.707556e-016  1.000000e+000
    outer loop
      vertex  2.825330e+000  1.008717e+000 -1.776357e-015
      vertex  2.019764e+000  8.720961e-001  0.000000e+000
      vertex  2.948344e+000  5.543185e-001 -1.776357e-015
    endloop
  endfacet
  facet normal  2.153261e-015  7.021161e-016  1.000000e+000
    outer loop
      vertex  2.948344e+000  5.543185e-001 -1.776357e-015
      vertex  2.019764e+000  8.720961e-001  0.000000e+000
      vertex  2.145621e+000  4.861162e-001  0.000000e+000
    endloop
  endfacet
  facet normal  2.192847e-015  2.362016e-016  1.000000e+000
    outer loop
      vertex  2.948344e+000  5.543185e-001 -1.776357e-015
      vertex  2.145621e+000  4.861162e-001  0.000000e+000
      vertex  2.998759e+000  8.627141e-002 -1.776357e-015
    endloop
  endfacet
  facet normal  2.218504e-015  2.909462e-016  1.000000e+000
    outer loop
      vertex  2.998759e+000  8.627141e-002 -1.776357e-015
      vertex  2.145621e+000  4.861162e-001  0.000000e+000
      vertex  2.198412e+000  8.358226e-002  0.000000e+000
    endloop
  endfacet
  facet normal  2.219853e-015 -1.105929e-016  1.000000e+000
    outer loop
      vertex  2.998759e+000  8.627141e-002 -1.776357e-015
      vertex  2.198412e+000  8.358226e-002  0.000000e+000
      vertex  2.975335e+000 -3.839000e-001 -1.776357e-015
    endloop
  endfacet
  facet normal  2.213862e-015 -1.205504e-016  1.000000e+000
    outer loop
      vertex  2.975335e+000 -3.839000e-001 -1.776357e-015
      vertex  2.198412e+000  8.358226e-002  0.000000e+000
      vertex  2.176338e+000 -3.217980e-001  0.000000e+000
    endloop
  endfacet
  facet normal  2.187550e-015 -4.590790e-016  9.999999e-001
    outer loop
      vertex  2.975335e+000 -3.839000e-001 -1.776357e-015
      vertex  2.176338e+000 -3.217980e-001  0.000000e+000
      vertex  2.878649e+000 -8.446186e-001 -1.776357e-015
    endloop
  endfacet
  facet normal  2.140679e-015 -5.220407e-016  1.000000e+000
    outer loop
      vertex  2.878649e+000 -8.446186e-001 -1.776357e-015
      vertex  2.176338e+000 -3.217980e-001  0.000000e+000
      vertex  2.080151e+000 -7.162198e-001  0.000000e+000
    endloop
  endfacet
  facet normal  2.096230e-015 -7.984658e-016  1.000000e+000
    outer loop
      vertex  2.878649e+000 -8.446186e-001 -1.776357e-015
      vertex  2.080151e+000 -7.162198e-001  0.000000e+000
      vertex  2.711081e+000 -1.284540e+000 -1.776357e-015
    endloop
  endfacet
  facet normal  2.001629e-015 -9.034883e-016  1.000000e+000
    outer loop
      vertex  2.711081e+000 -1.284540e+000 -1.776357e-015
      vertex  2.080151e+000 -7.162198e-001  0.000000e+000
      vertex  1.913128e+000 -1.086252e+000  0.000000e+000
    endloop
  endfacet
  facet normal  1.897441e-015 -1.322764e-015  1.000000e+000
    outer loop
      vertex  2.711081e+000 -1.284540e+000 -1.776357e-015
      vertex  1.913128e+000 -1.086252e+000  0.000000e+000
      vertex  1.680955e+000 -1.419292e+000  0.000000e+000
    endloop
  endfacet
  facet normal  1.864375e-015 -1.069991e-015  1.000000e+000
    outer loop
      vertex  2.711081e+000 -1.284540e+000 -1.776357e-015
      vertex  1.680955e+000 -1.419292e+000  0.000000e+000
      vertex  2.476756e+000 -1.692831e+000 -1.776357e-015
    endloop
  endfacet
  facet normal  1.654174e-015 -1.681523e-015  1.000000e+000
    outer loop
      vertex  2.476756e+000 -1.692831e+000 -1.776357e-015
      vertex  1.680955e+000 -1.419292e+000  0.000000e+000
      vertex  1.391539e+000 -1.704001e+000  0.000000e+000
    endloop
  endfacet
  facet normal  1.650552e-015 -1.329551e-015  1.000000e+000
    outer loop
      vertex  2.476756e+000 -1.692831e+000 -1.776357e-015
      vertex  1.391539e+000 -1.704001e+000  0.000000e+000
      vertex  2.181446e+000 -2.059440e+000 -1.776357e-015
    endloop
  endfacet
  facet normal  1.347747e-015 -2.002487e-015  1.000000e+000
    outer loop
      vertex  2.181446e+000 -2.059440e+000 -1.776357e-015
      vertex  1.391539e+000 -1.704001e+000  0.000000e+000
      vertex  1.054736e+000 -1.930682e+000  0.000000e+000
    endloop
  endfacet
  facet normal  1.246643e-015 -2.887208e-015  9.999999e-001
    outer loop
      vertex  2.181446e+000 -2.059440e+000 -1.776357e-015
      vertex  1.054736e+000 -1.930682e+000  0.000000e+000
      vertex  6.820155e-001 -2.091615e+000  0.000000e+000
    endloop
  endfacet
  facet normal  0.000000e+000  -0.000000e+000 -1.000000e+000
    outer loop
      vertex -1.008717e+000  2.825330e+000 -1.200000e+000
      vertex -5.543185e-001  2.948344e+000 -1.200000e+000
      vertex  8.446186e-001  2.878649e+000 -1.200000e+000
    endloop
  endfacet
  facet normal  0.000000e+000  0.000000e+000 -9.999999e-001
    outer loop
      vertex  8.446186e-001  2.878649e+000 -1.200000e+000
      vertex -5.543185e-001  2.948344e+000 -1.200000e+000
      vertex -8.627141e-002  2.998759e+000 -1.200000e+000
    endloop
  endfacet
  facet normal  0.000000e+000  0.000000e+000 -1.000000e+000
    outer loop
      vertex  8.446186e-001  2.878649e+000 -1.200000e+000
      vertex -8.627141e-002  2.998759e+000 -1.200000e+000
      vertex  3.839000e-001  2.975335e+000 -1.200000e+000
    endloop
  endfacet
  facet normal  0.000000e+000  0.000000e+000 -1.000000e+000
    outer loop
      vertex  8.627141e-002 -2.998759e+000 -1.200000e+000
      vertex -3.839000e-001 -2.975335e+000 -1.200000e+000
      vertex  5.543185e-001 -2.948344e+000 -1.200000e+000
    endloop
  endfacet
  facet normal  -0.000000e+000  0.000000e+000 -1.000000e+000
    outer loop
      vertex  5.543185e-001 -2.948344e+000 -1.200000e+000
      vertex -3.839000e-001 -2.975335e+000 -1.200000e+000
      vertex -8.446186e-001 -2.878649e+000 -1.200000e+000
    endloop
  endfacet
  facet normal  0.000000e+000  0.000000e+000 -1.000000e+000
    outer loop
      vertex  5.543185e-001 -2.948344e+000 -1.200000e+000
      vertex -8.446186e-001 -2.878649e+000 -1.200000e+000
      vertex  1.008717e+000 -2.825330e+000 -1.200000e+000
    endloop
  endfacet
  facet normal  -0.000000e+000  0.000000e+000 -1.000000e+000
    outer loop
      vertex  1.008717e+000 -2.825330e+000 -1.200000e+000
      vertex -8.446186e-001 -2.878649e+000 -1.200000e+000
      vertex -1.284540e+000 -2.711081e+000 -1.200000e+000
    endloop
  endfacet
  facet normal  0.000000e+000  0.000000e+000 -1.000000e+000
    outer loop
      vertex  1.008717e+000 -2.825330e+000 -1.200000e+000
      vertex -1.284540e+000 -2.711081e+000 -1.200000e+000
      vertex  1.438277e+000 -2.632748e+000 -1.200000e+000
    endloop
  endfacet
  facet normal  -0.000000e+000  0.000000e+000 -1.000000e+000
    outer loop
      vertex  1.438277e+000 -2.632748e+000 -1.200000e+000
      vertex -1.284540e+000 -2.711081e+000 -1.200000e+000
      vertex -1.692831e+000 -2.476756e+000 -1.200000e+000
    endloop
  endfacet
  facet normal  0.000000e+000  0.000000e+000 -1.000000e+000
    outer loop
      vertex  1.438277e+000 -2.632748e+000 -1.200000e+000
      vertex -1.692831e+000 -2.476756e+000 -1.200000e+000
      vertex  1.832422e+000 -2.375338e+000 -1.200000e+000
    endloop
  endfacet
  facet normal  -0.000000e+000  0.000000e+000 -1.000000e+000
    outer loop
      vertex  1.832422e+000 -2.375338e+000 -1.200000e+000
      vertex -1.692831e+000 -2.476756e+000 -1.200000e+000
      vertex -2.059440e+000 -2.181446e+000 -1.200000e+000
    endloop
  endfacet
  facet normal  0.000000e+000  0.000000e+000 -1.000000e+000
    outer loop
      vertex  1.832422e+000 -2.375338e+000 -1.200000e+000
      vertex -2.059440e+000 -2.181446e+000 -1.200000e+000
      vertex  2.181446e+000 -2.059440e+000 -1.200000e+000
    endloop
  endfacet
  facet normal  -0.000000e+000  0.000000e+000 -1.000000e+000
    outer loop
      vertex  2.181446e+000 -2.059440e+000 -1.200000e+000
      vertex -2.059440e+000 -2.181446e+000 -1.200000e+000
      vertex -2.375338e+000 -1.832422e+000 -1.200000e+000
    endloop
  endfacet
  facet normal  0.000000e+000  0.000000e+000 -1.000000e+000
    outer loop
      vertex  2.181446e+000 -2.059440e+000 -1.200000e+000
      vertex -2.375338e+000 -1.832422e+000 -1.200000e+000
      vertex  2.476756e+000 -1.692831e+000 -1.200000e+000
    endloop
  endfacet
  facet normal  -0.000000e+000  0.000000e+000 -1.000000e+000
    outer loop
      vertex  2.476756e+000 -1.692831e+000 -1.200000e+000
      vertex -2.375338e+000 -1.832422e+000 -1.200000e+000
      vertex -2.632748e+000 -1.438277e+000 -1.200000e+000
    endloop
  endfacet
  facet normal  0.000000e+000  0.000000e+000 -1.000000e+000
    outer loop
      vertex  2.476756e+000 -1.692831e+000 -1.200000e+000
      vertex -2.632748e+000 -1.438277e+000 -1.200000e+000
      vertex  2.711081e+000 -1.284540e+000 -1.200000e+000
    endloop
  endfacet
  facet normal  -0.000000e+000  0.000000e+000 -1.000000e+000
    outer loop
      vertex  2.711081e+000 -1.284540e+000 -1.200000e+000
      vertex -2.632748e+000 -1.438277e+000 -1.200000e+000
      vertex -2.825330e+000 -1.008717e+000 -1.200000e+000
    endloop
  endfacet
  facet normal  0.000000e+000  0.000000e+000 -1.000000e+000
    outer loop
      vertex  2.711081e+000 -1.284540e+000 -1.200000e+000
      vertex -2.825330e+000 -1.008717e+000 -1.200000e+000
      vertex  2.878649e+000 -8.446186e-001 -1.200000e+000
    endloop
  endfacet
  facet normal  -0.000000e+000  0.000000e+000 -9.999999e-001
    outer loop
      vertex  2.878649e+000 -8.446186e-001 -1.200000e+000
      vertex -2.825330e+000 -1.008717e+000 -1.200000e+000
      vertex -2.948344e+000 -5.543185e-001 -1.200000e+000
    endloop
  endfacet
  facet normal  0.000000e+000  0.000000e+000 -1.000000e+000
    outer loop
      vertex  2.878649e+000 -8.446186e-001 -1.200000e+000
      vertex -2.948344e+000 -5.543185e-001 -1.200000e+000
      vertex  2.975335e+000 -3.839000e-001 -1.200000e+000
    endloop
  endfacet
  facet normal  -0.000000e+000  0.000000e+000 -1.000000e+000
    outer loop
      vertex  2.975335e+000 -3.839000e-001 -1.200000e+000
      vertex -2.948344e+000 -5.543185e-001 -1.200000e+000
      vertex -2.998759e+000 -8.627141e-002 -1.200000e+000
    endloop
  endfacet
  facet normal  0.000000e+000  0.000000e+000 -1.000000e+000
    outer loop
      vertex  2.975335e+000 -3.839000e-001 -1.200000e+000
      vertex -2.998759e+000 -8.627141e-002 -1.200000e+000
      vertex  2.998759e+000  8.627141e-002 -1.200000e+000
    endloop
  endfacet
  facet normal  -0.000000e+000  0.000000e+000 -1.000000e+000
    outer loop
      vertex  2.998759e+000  8.627141e-002 -1.200000e+000
      vertex -2.998759e+000 -8.627141e-002 -1.200000e+000
      vertex -2.975335e+000  3.839000e-001 -1.200000e+000
    endloop
  endfacet
  facet normal  0.000000e+000  0.000000e+000 -1.000000e+000
    outer loop
      vertex  2.998759e+000  8.627141e-002 -1.200000e+000
      vertex -2.975335e+000  3.839000e-001 -1.200000e+000
      vertex  2.948344e+000  5.543185e-001 -1.200000e+000
    endloop
  endfacet
  facet normal  -0.000000e+000  0.000000e+000 -1.000000e+000
    outer loop
      vertex  2.948344e+000  5.543185e-001 -1.200000e+000
      vertex -2.975335e+000  3.839000e-001 -1.200000e+000
      vertex -2.878649e+000  8.446186e-001 -1.200000e+000
    endloop
  endfacet
  facet normal  0.000000e+000  0.000000e+000 -9.999999e-001
    outer loop
      vertex  2.948344e+000  5.543185e-001 -1.200000e+000
      vertex -2.878649e+000  8.446186e-001 -1.200000e+000
      vertex  2.825330e+000  1.008717e+000 -1.200000e+000
    endloop
  endfacet
  facet normal  -0.000000e+000  0.000000e+000 -1.000000e+000
    outer loop
      vertex  2.825330e+000  1.008717e+000 -1.200000e+000
      vertex -2.878649e+000  8.446186e-001 -1.200000e+000
      vertex -2.711081e+000  1.284540e+000 -1.200000e+000
    endloop
  endfacet
  facet normal  0.000000e+000  0.000000e+000 -1.000000e+000
    outer loop
      vertex  2.825330e+000  1.008717e+000 -1.200000e+000
      vertex -2.711081e+000  1.284540e+000 -1.200000e+000
      vertex  2.632748e+000  1.438277e+000 -1.200000e+000
    endloop
  endfacet
  facet normal  -0.000000e+000  0.000000e+000 -1.000000e+000
    outer loop
      vertex  2.632748e+000  1.438277e+000 -1.200000e+000
      vertex -2.711081e+000  1.284540e+000 -1.200000e+000
      vertex -2.476756e+000  1.692831e+000 -1.200000e+000
    endloop
  endfacet
  facet normal  0.000000e+000  0.000000e+000 -1.000000e+000
    outer loop
      vertex  2.632748e+000  1.438277e+000 -1.200000e+000
      vertex -2.476756e+000  1.692831e+000 -1.200000e+000
      vertex  2.375338e+000  1.832422e+000 -1.200000e+000
    endloop
  endfacet
  facet normal  -0.000000e+000  0.000000e+000 -1.000000e+000
    outer loop
      vertex  2.375338e+000  1.832422e+000 -1.200000e+000
      vertex -2.476756e+000  1.692831e+000 -1.200000e+000
      vertex -2.181446e+000  2.059440e+000 -1.200000e+000
    endloop
  endfacet
  facet normal  0.000000e+000  0.000000e+000 -1.000000e+000
    outer loop
      vertex  2.375338e+000  1.832422e+000 -1.200000e+000
      vertex -2.181446e+000  2.059440e+000 -1.200000e+000
      vertex  2.059440e+000  2.181446e+000 -1.200000e+000
    endloop
  endfacet
  facet normal  -0.000000e+000  0.000000e+000 -1.000000e+000
    outer loop
      vertex  2.059440e+000  2.181446e+000 -1.200000e+000
      vertex -2.181446e+000  2.059440e+000 -1.200000e+000
      vertex -1.832422e+000  2.375338e+000 -1.200000e+000
    endloop
  endfacet
  facet normal  0.000000e+000  0.000000e+000 -1.000000e+000
    outer loop
      vertex  2.059440e+000  2.181446e+000 -1.200000e+000
      vertex -1.832422e+000  2.375338e+000 -1.200000e+000
      vertex  1.692831e+000  2.476756e+000 -1.200000e+000
    endloop
  endfacet
  facet normal  -0.000000e+000  0.000000e+000 -1.000000e+000
    outer loop
      vertex  1.692831e+000  2.476756e+000 -1.200000e+000
      vertex -1.832422e+000  2.375338e+000 -1.200000e+000
      vertex -1.438277e+000  2.632748e+000 -1.200000e+000
    endloop
  endfacet
  facet normal  0.000000e+000  0.000000e+000 -1.000000e+000
    outer loop
      vertex  1.692831e+000  2.476756e+000 -1.200000e+000
      vertex -1.438277e+000  2.632748e+000 -1.200000e+000
      vertex  1.284540e+000  2.711081e+000 -1.200000e+000
    endloop
  endfacet
  facet normal  -0.000000e+000  0.000000e+000 -1.000000e+000
    outer loop
      vertex  1.284540e+000  2.711081e+000 -1.200000e+000
      vertex -1.438277e+000  2.632748e+000 -1.200000e+000
      vertex -1.008717e+000  2.825330e+000 -1.200000e+000
    endloop
  endfacet
  facet normal  0.000000e+000  0.000000e+000 -1.000000e+000
    outer loop
      vertex  1.284540e+000  2.711081e+000 -1.200000e+000
      vertex -1.008717e+000  2.825330e+000 -1.200000e+000
      vertex  8.446186e-001  2.878649e+000 -1.200000e+000
    endloop
  endfacet
  facet normal -3.964076e-001  9.180747e-001  0.000000e+000
    outer loop
      vertex -1.054736e+000  1.930682e+000  0.000000e+000
      vertex -1.054736e+000  1.930682e+000  1.400000e+001
      vertex -6.820155e-001  2.091615e+000  0.000000e+000
    endloop
  endfacet
  facet normal -3.964076e-001  9.180747e-001  0.000000e+000
    outer loop
      vertex -6.820155e-001  2.091615e+000  0.000000e+000
      vertex -1.054736e+000  1.930682e+000  1.400000e+001
      vertex -6.820155e-001  2.091615e+000  1.400000e+001
    endloop
  endfacet
  facet normal -2.209617e-001  9.752825e-001  0.000000e+000
    outer loop
      vertex -6.820155e-001  2.091615e+000  0.000000e+000
      vertex -6.820155e-001  2.091615e+000  1.400000e+001
      vertex -2.860695e-001  2.181322e+000  0.000000e+000
    endloop
  endfacet
  facet normal -2.209617e-001  9.752825e-001  0.000000e+000
    outer loop
      vertex -2.860695e-001  2.181322e+000  0.000000e+000
      vertex -6.820155e-001  2.091615e+000  1.400000e+001
      vertex -2.860695e-001  2.181322e+000  1.400000e+001
    endloop
  endfacet
  facet normal -3.799198e-002  9.992781e-001  0.000000e+000
    outer loop
      vertex -2.860695e-001  2.181322e+000  0.000000e+000
      vertex -2.860695e-001  2.181322e+000  1.400000e+001
      vertex  1.196181e-001  2.196746e+000  0.000000e+000
    endloop
  endfacet
  facet normal -3.799198e-002  9.992781e-001  0.000000e+000
    outer loop
      vertex  1.196181e-001  2.196746e+000  0.000000e+000
      vertex -2.860695e-001  2.181322e+000  1.400000e+001
      vertex  1.196181e-001  2.196746e+000  1.400000e+001
    endloop
  endfacet
  facet normal  1.462720e-001  9.892444e-001  0.000000e+000
    outer loop
      vertex  1.196181e-001  2.196746e+000  0.000000e+000
      vertex  1.196181e-001  2.196746e+000  1.400000e+001
      vertex  5.212324e-001  2.137362e+000  0.000000e+000
    endloop
  endfacet
  facet normal  1.462720e-001  9.892444e-001  -0.000000e+000
    outer loop
      vertex  5.212324e-001  2.137362e+000  0.000000e+000
      vertex  1.196181e-001  2.196746e+000  1.400000e+001
      vertex  5.212324e-001  2.137362e+000  1.400000e+001
    endloop
  endfacet
  facet normal  3.255543e-001  9.455234e-001  0.000000e+000
    outer loop
      vertex  5.212324e-001  2.137362e+000  0.000000e+000
      vertex  5.212324e-001  2.137362e+000  1.400000e+001
      vertex  9.050967e-001  2.005193e+000  0.000000e+000
    endloop
  endfacet
  facet normal  3.255543e-001  9.455234e-001  -0.000000e+000
    outer loop
      vertex  9.050967e-001  2.005193e+000  0.000000e+000
      vertex  5.212324e-001  2.137362e+000  1.400000e+001
      vertex  9.050967e-001  2.005193e+000  1.400000e+001
    endloop
  endfacet
  facet normal  4.937506e-001  8.696036e-001  0.000000e+000
    outer loop
      vertex  9.050967e-001  2.005193e+000  0.000000e+000
      vertex  9.050967e-001  2.005193e+000  1.400000e+001
      vertex  1.258139e+000  1.804740e+000  0.000000e+000
    endloop
  endfacet
  facet normal  4.937506e-001  8.696036e-001  -0.000000e+000
    outer loop
      vertex  1.258139e+000  1.804740e+000  0.000000e+000
      vertex  9.050967e-001  2.005193e+000  1.400000e+001
      vertex  1.258139e+000  1.804740e+000  1.400000e+001
    endloop
  endfacet
  facet normal  6.451329e-001  7.640703e-001  0.000000e+000
    outer loop
      vertex  1.258139e+000  1.804740e+000  0.000000e+000
      vertex  1.258139e+000  1.804740e+000  1.400000e+001
      vertex  1.568337e+000  1.542828e+000  0.000000e+000
    endloop
  endfacet
  facet normal  6.451329e-001  7.640703e-001  -0.000000e+000
    outer loop
      vertex  1.568337e+000  1.542828e+000  0.000000e+000
      vertex  1.258139e+000  1.804740e+000  1.400000e+001
      vertex  1.568337e+000  1.542828e+000  1.400000e+001
    endloop
  endfacet
  facet normal  7.745458e-001  6.325177e-001  0.000000e+000
    outer loop
      vertex  1.568337e+000  1.542828e+000  0.000000e+000
      vertex  1.568337e+000  1.542828e+000  1.400000e+001
      vertex  1.825127e+000  1.228378e+000  0.000000e+000
    endloop
  endfacet
  facet normal  7.745458e-001  6.325177e-001  -0.000000e+000
    outer loop
      vertex  1.825127e+000  1.228378e+000  0.000000e+000
      vertex  1.568337e+000  1.542828e+000  1.400000e+001
      vertex  1.825127e+000  1.228378e+000  1.400000e+001
    endloop
  endfacet
  facet normal  8.775826e-001  4.794256e-001  0.000000e+000
    outer loop
      vertex  1.825127e+000  1.228378e+000  0.000000e+000
      vertex  1.825127e+000  1.228378e+000  1.400000e+001
      vertex  2.019764e+000  8.720961e-001  0.000000e+000
    endloop
  endfacet
  facet normal  8.775826e-001  4.794256e-001  -0.000000e+000
    outer loop
      vertex  2.019764e+000  8.720961e-001  0.000000e+000
      vertex  1.825127e+000  1.228378e+000  1.400000e+001
      vertex  2.019764e+000  8.720961e-001  1.400000e+001
    endloop
  endfacet
  facet normal  9.507343e-001  3.100070e-001  0.000000e+000
    outer loop
      vertex  2.019764e+000  8.720961e-001  0.000000e+000
      vertex  2.019764e+000  8.720961e-001  1.400000e+001
      vertex  2.145621e+000  4.861162e-001  0.000000e+000
    endloop
  endfacet
  facet normal  9.507343e-001  3.100070e-001  -0.000000e+000
    outer loop
      vertex  2.145621e+000  4.861162e-001  0.000000e+000
      vertex  2.019764e+000  8.720961e-001  1.400000e+001
      vertex  2.145621e+000  4.861162e-001  1.400000e+001
    endloop
  endfacet
  facet normal  9.915098e-001  1.300318e-001  0.000000e+000
    outer loop
      vertex  2.145621e+000  4.861162e-001  0.000000e+000
      vertex  2.145621e+000  4.861162e-001  1.400000e+001
      vertex  2.198412e+000  8.358226e-002  0.000000e+000
    endloop
  endfacet
  facet normal  9.915098e-001  1.300318e-001  -0.000000e+000
    outer loop
      vertex  2.198412e+000  8.358226e-002  0.000000e+000
      vertex  2.145621e+000  4.861162e-001  1.400000e+001
      vertex  2.198412e+000  8.358226e-002  1.400000e+001
    endloop
  endfacet
  facet normal  9.985208e-001 -5.437200e-002  0.000000e+000
    outer loop
      vertex  2.198412e+000  8.358226e-002  0.000000e+000
      vertex  2.198412e+000  8.358226e-002  1.400000e+001
      vertex  2.176338e+000 -3.217980e-001  0.000000e+000
    endloop
  endfacet
  facet normal  9.985208e-001 -5.437200e-002  0.000000e+000
    outer loop
      vertex  2.176338e+000 -3.217980e-001  0.000000e+000
      vertex  2.198412e+000  8.358226e-002  1.400000e+001
      vertex  2.176338e+000 -3.217980e-001  1.400000e+001
    endloop
  endfacet
  facet normal  9.715283e-001 -2.369235e-001  0.000000e+000
    outer loop
      vertex  2.176338e+000 -3.217980e-001  0.000000e+000
      vertex  2.176338e+000 -3.217980e-001  1.400000e+001
      vertex  2.080151e+000 -7.162198e-001  0.000000e+000
    endloop
  endfacet
  facet normal  9.715283e-001 -2.369235e-001  0.000000e+000
    outer loop
      vertex  2.080151e+000 -7.162198e-001  0.000000e+000
      vertex  2.176338e+000 -3.217980e-001  1.400000e+001
      vertex  2.080151e+000 -7.162198e-001  1.400000e+001
    endloop
  endfacet
  facet normal  9.114515e-001 -4.114077e-001  0.000000e+000
    outer loop
      vertex  2.080151e+000 -7.162198e-001  0.000000e+000
      vertex  2.080151e+000 -7.162198e-001  1.400000e+001
      vertex  1.913128e+000 -1.086252e+000  0.000000e+000
    endloop
  endfacet
  facet normal  9.114515e-001 -4.114077e-001  0.000000e+000
    outer loop
      vertex  1.913128e+000 -1.086252e+000  0.000000e+000
      vertex  2.080151e+000 -7.162198e-001  1.400000e+001
      vertex  1.913128e+000 -1.086252e+000  1.400000e+001
    endloop
  endfacet
  facet normal  8.203363e-001 -5.718815e-001  0.000000e+000
    outer loop
      vertex  1.913128e+000 -1.086252e+000  0.000000e+000
      vertex  1.913128e+000 -1.086252e+000  1.400000e+001
      vertex  1.680955e+000 -1.419292e+000  0.000000e+000
    endloop
  endfacet
  facet normal  8.203363e-001 -5.718815e-001  0.000000e+000
    outer loop
      vertex  1.680955e+000 -1.419292e+000  0.000000e+000
      vertex  1.913128e+000 -1.086252e+000  1.400000e+001
      vertex  1.680955e+000 -1.419292e+000  1.400000e+001
    endloop
  endfacet
  facet normal  7.012857e-001 -7.128804e-001  0.000000e+000
    outer loop
      vertex  1.680955e+000 -1.419292e+000  0.000000e+000
      vertex  1.680955e+000 -1.419292e+000  1.400000e+001
      vertex  1.391539e+000 -1.704001e+000  0.000000e+000
    endloop
  endfacet
  facet normal  7.012857e-001 -7.128804e-001  0.000000e+000
    outer loop
      vertex  1.391539e+000 -1.704001e+000  0.000000e+000
      vertex  1.680955e+000 -1.419292e+000  1.400000e+001
      vertex  1.391539e+000 -1.704001e+000  1.400000e+001
    endloop
  endfacet
  facet normal  5.583534e-001 -8.296032e-001  0.000000e+000
    outer loop
      vertex  1.391539e+000 -1.704001e+000  0.000000e+000
      vertex  1.391539e+000 -1.704001e+000  1.400000e+001
      vertex  1.054736e+000 -1.930682e+000  0.000000e+000
    endloop
  endfacet
  facet normal  5.583534e-001 -8.296032e-001  0.000000e+000
    outer loop
      vertex  1.054736e+000 -1.930682e+000  0.000000e+000
      vertex  1.391539e+000 -1.704001e+000  1.400000e+001
      vertex  1.054736e+000 -1.930682e+000  1.400000e+001
    endloop
  endfacet
  facet normal -4.090934e-001  9.124925e-001  0.000000e+000
    outer loop
      vertex -1.438277e+000  2.632748e+000 -1.200000e+000
      vertex -1.438277e+000  2.632748e+000 -1.776357e-015
      vertex -1.008717e+000  2.825330e+000 -1.200000e+000
    endloop
  endfacet
  facet normal -4.090934e-001  9.124925e-001  0.000000e+000
    outer loop
      vertex -1.008717e+000  2.825330e+000 -1.200000e+000
      vertex -1.438277e+000  2.632748e+000 -1.776357e-015
      vertex -1.008717e+000  2.825330e+000 -1.776357e-015
    endloop
  endfacet
  facet normal -2.613113e-001  9.652546e-001  0.000000e+000
    outer loop
      vertex -1.008717e+000  2.825330e+000 -1.200000e+000
      vertex -1.008717e+000  2.825330e+000 -1.776357e-015
      vertex -5.543185e-001  2.948344e+000 -1.200000e+000
    endloop
  endfacet
  facet normal -2.613113e-001  9.652546e-001  0.000000e+000
    outer loop
      vertex -5.543185e-001  2.948344e+000 -1.200000e+000
      vertex -1.008717e+000  2.825330e+000 -1.776357e-015
      vertex -5.543185e-001  2.948344e+000 -1.776357e-015
    endloop
  endfacet
  facet normal -1.070951e-001  9.942488e-001  0.000000e+000
    outer loop
      vertex -5.543185e-001  2.948344e+000 -1.200000e+000
      vertex -5.543185e-001  2.948344e+000 -1.776357e-015
      vertex -8.627141e-002  2.998759e+000 -1.200000e+000
    endloop
  endfacet
  facet normal -1.070951e-001  9.942488e-001  0.000000e+000
    outer loop
      vertex -8.627141e-002  2.998759e+000 -1.200000e+000
      vertex -5.543185e-001  2.948344e+000 -1.776357e-015
      vertex -8.627141e-002  2.998759e+000 -1.776357e-015
    endloop
  endfacet
  facet normal  4.975822e-002  9.987613e-001  0.000000e+000
    outer loop
      vertex -8.627141e-002  2.998759e+000 -1.200000e+000
      vertex -8.627141e-002  2.998759e+000 -1.776357e-015
      vertex  3.839000e-001  2.975335e+000 -1.200000e+000
    endloop
  endfacet
  facet normal  4.975822e-002  9.987613e-001  -0.000000e+000
    outer loop
      vertex  3.839000e-001  2.975335e+000 -1.200000e+000
      vertex -8.627141e-002  2.998759e+000 -1.776357e-015
      vertex  3.839000e-001  2.975335e+000 -1.776357e-015
    endloop
  endfacet
  facet normal  2.053859e-001  9.786810e-001  0.000000e+000
    outer loop
      vertex  3.839000e-001  2.975335e+000 -1.200000e+000
      vertex  3.839000e-001  2.975335e+000 -1.776357e-015
      vertex  8.446186e-001  2.878649e+000 -1.200000e+000
    endloop
  endfacet
  facet normal  2.053859e-001  9.786810e-001  -0.000000e+000
    outer loop
      vertex  8.446186e-001  2.878649e+000 -1.200000e+000
      vertex  3.839000e-001  2.975335e+000 -1.776357e-015
      vertex  8.446186e-001  2.878649e+000 -1.776357e-015
    endloop
  endfacet
  facet normal  3.559572e-001  9.345023e-001  0.000000e+000
    outer loop
      vertex  8.446186e-001  2.878649e+000 -1.200000e+000
      vertex  8.446186e-001  2.878649e+000 -1.776357e-015
      vertex  1.284540e+000  2.711081e+000 -1.200000e+000
    endloop
  endfacet
  facet normal  3.559572e-001  9.345023e-001  -0.000000e+000
    outer loop
      vertex  1.284540e+000  2.711081e+000 -1.200000e+000
      vertex  8.446186e-001  2.878649e+000 -1.776357e-015
      vertex  1.284540e+000  2.711081e+000 -1.776357e-015
    endloop
  endfacet
  facet normal  4.977630e-001  8.673130e-001  0.000000e+000
    outer loop
      vertex  1.284540e+000  2.711081e+000 -1.200000e+000
      vertex  1.284540e+000  2.711081e+000 -1.776357e-015
      vertex  1.692831e+000  2.476756e+000 -1.200000e+000
    endloop
  endfacet
  facet normal  4.977630e-001  8.673130e-001  -0.000000e+000
    outer loop
      vertex  1.692831e+000  2.476756e+000 -1.200000e+000
      vertex  1.284540e+000  2.711081e+000 -1.776357e-015
      vertex  1.692831e+000  2.476756e+000 -1.776357e-015
    endloop
  endfacet
  facet normal  6.273125e-001  7.787677e-001  0.000000e+000
    outer loop
      vertex  1.692831e+000  2.476756e+000 -1.200000e+000
      vertex  1.692831e+000  2.476756e+000 -1.776357e-015
      vertex  2.059440e+000  2.181446e+000 -1.200000e+000
    endloop
  endfacet
  facet normal  6.273125e-001  7.787677e-001  -0.000000e+000
    outer loop
      vertex  2.059440e+000  2.181446e+000 -1.200000e+000
      vertex  1.692831e+000  2.476756e+000 -1.776357e-015
      vertex  2.059440e+000  2.181446e+000 -1.776357e-015
    endloop
  endfacet
  facet normal  7.414152e-001  6.710466e-001  0.000000e+000
    outer loop
      vertex  2.059440e+000  2.181446e+000 -1.200000e+000
      vertex  2.059440e+000  2.181446e+000 -1.776357e-015
      vertex  2.375338e+000  1.832422e+000 -1.200000e+000
    endloop
  endfacet
  facet normal  7.414152e-001  6.710466e-001  -0.000000e+000
    outer loop
      vertex  2.375338e+000  1.832422e+000 -1.200000e+000
      vertex  2.059440e+000  2.181446e+000 -1.776357e-015
      vertex  2.375338e+000  1.832422e+000 -1.776357e-015
    endloop
  endfacet
  facet normal  8.372619e-001  5.468020e-001  0.000000e+000
    outer loop
      vertex  2.375338e+000  1.832422e+000 -1.200000e+000
      vertex  2.375338e+000  1.832422e+000 -1.776357e-015
      vertex  2.632748e+000  1.438277e+000 -1.200000e+000
    endloop
  endfacet
  facet normal  8.372619e-001  5.468020e-001  -0.000000e+000
    outer loop
      vertex  2.632748e+000  1.438277e+000 -1.200000e+000
      vertex  2.375338e+000  1.832422e+000 -1.776357e-015
      vertex  2.632748e+000  1.438277e+000 -1.776357e-015
    endloop
  endfacet
  facet normal  9.124925e-001  4.090934e-001  0.000000e+000
    outer loop
      vertex  2.632748e+000  1.438277e+000 -1.200000e+000
      vertex  2.632748e+000  1.438277e+000 -1.776357e-015
      vertex  2.825330e+000  1.008717e+000 -1.200000e+000
    endloop
  endfacet
  facet normal  9.124925e-001  4.090934e-001  -0.000000e+000
    outer loop
      vertex  2.825330e+000  1.008717e+000 -1.200000e+000
      vertex  2.632748e+000  1.438277e+000 -1.776357e-015
      vertex  2.825330e+000  1.008717e+000 -1.776357e-015
    endloop
  endfacet
  facet normal  9.652546e-001  2.613113e-001  0.000000e+000
    outer loop
      vertex  2.825330e+000  1.008717e+000 -1.200000e+000
      vertex  2.825330e+000  1.008717e+000 -1.776357e-015
      vertex  2.948344e+000  5.543185e-001 -1.200000e+000
    endloop
  endfacet
  facet normal  9.652546e-001  2.613113e-001  -0.000000e+000
    outer loop
      vertex  2.948344e+000  5.543185e-001 -1.200000e+000
      vertex  2.825330e+000  1.008717e+000 -1.776357e-015
      vertex  2.948344e+000  5.543185e-001 -1.776357e-015
    endloop
  endfacet
  facet normal  9.942488e-001  1.070951e-001  0.000000e+000
    outer loop
      vertex  2.948344e+000  5.543185e-001 -1.200000e+000
      vertex  2.948344e+000  5.543185e-001 -1.776357e-015
      vertex  2.998759e+000  8.627141e-002 -1.200000e+000
    endloop
  endfacet
  facet normal  9.942488e-001  1.070951e-001  -0.000000e+000
    outer loop
      vertex  2.998759e+000  8.627141e-002 -1.200000e+000
      vertex  2.948344e+000  5.543185e-001 -1.776357e-015
      vertex  2.998759e+000  8.627141e-002 -1.776357e-015
    endloop
  endfacet
  facet normal  9.987613e-001 -4.975822e-002  0.000000e+000
    outer loop
      vertex  2.998759e+000  8.627141e-002 -1.200000e+000
      vertex  2.998759e+000  8.627141e-002 -1.776357e-015
      vertex  2.975335e+000 -3.839000e-001 -1.200000e+000
    endloop
  endfacet
  facet normal  9.987613e-001 -4.975822e-002  0.000000e+000
    outer loop
      vertex  2.975335e+000 -3.839000e-001 -1.200000e+000
      vertex  2.998759e+000  8.627141e-002 -1.776357e-015
      vertex  2.975335e+000 -3.839000e-001 -1.776357e-015
    endloop
  endfacet
  facet normal  9.786810e-001 -2.053859e-001  0.000000e+000
    outer loop
      vertex  2.975335e+000 -3.839000e-001 -1.200000e+000
      vertex  2.975335e+000 -3.839000e-001 -1.776357e-015
      vertex  2.878649e+000 -8.446186e-001 -1.200000e+000
    endloop
  endfacet
  facet normal  9.786810e-001 -2.053859e-001  0.000000e+000
    outer loop
      vertex  2.878649e+000 -8.446186e-001 -1.200000e+000
      vertex  2.975335e+000 -3.839000e-001 -1.776357e-015
      vertex  2.878649e+000 -8.446186e-001 -1.776357e-015
    endloop
  endfacet
  facet normal  9.345023e-001 -3.559572e-001  0.000000e+000
    outer loop
      vertex  2.878649e+000 -8.446186e-001 -1.200000e+000
      vertex  2.878649e+000 -8.446186e-001 -1.776357e-015
      vertex  2.711081e+000 -1.284540e+000 -1.200000e+000
    endloop
  endfacet
  facet normal  9.345023e-001 -3.559572e-001  0.000000e+000
    outer loop
      vertex  2.711081e+000 -1.284540e+000 -1.200000e+000
      vertex  2.878649e+000 -8.446186e-001 -1.776357e-015
      vertex  2.711081e+000 -1.284540e+000 -1.776357e-015
    endloop
  endfacet
  facet normal  8.673130e-001 -4.977630e-001  0.000000e+000
    outer loop
      vertex  2.711081e+000 -1.284540e+000 -1.200000e+000
      vertex  2.711081e+000 -1.284540e+000 -1.776357e-015
      vertex  2.476756e+000 -1.692831e+000 -1.200000e+000
    endloop
  endfacet
  facet normal  8.673130e-001 -4.977630e-001  0.000000e+000
    outer loop
      vertex  2.476756e+000 -1.692831e+000 -1.200000e+000
      vertex  2.711081e+000 -1.284540e+000 -1.776357e-015
      vertex  2.476756e+000 -1.692831e+000 -1.776357e-015
    endloop
  endfacet
  facet normal  7.787677e-001 -6.273125e-001  0.000000e+000
    outer loop
      vertex  2.476756e+000 -1.692831e+000 -1.200000e+000
      vertex  2.476756e+000 -1.692831e+000 -1.776357e-015
      vertex  2.181446e+000 -2.059440e+000 -1.200000e+000
    endloop
  endfacet
  facet normal  7.787677e-001 -6.273125e-001  0.000000e+000
    outer loop
      vertex  2.181446e+000 -2.059440e+000 -1.200000e+000
      vertex  2.476756e+000 -1.692831e+000 -1.776357e-015
      vertex  2.181446e+000 -2.059440e+000 -1.776357e-015
    endloop
  endfacet
  facet normal  6.710466e-001 -7.414152e-001  0.000000e+000
    outer loop
      vertex  2.181446e+000 -2.059440e+000 -1.200000e+000
      vertex  2.181446e+000 -2.059440e+000 -1.776357e-015
      vertex  1.832422e+000 -2.375338e+000 -1.200000e+000
    endloop
  endfacet
  facet normal  6.710466e-001 -7.414152e-001  0.000000e+000
    outer loop
      vertex  1.832422e+000 -2.375338e+000 -1.200000e+000
      vertex  2.181446e+000 -2.059440e+000 -1.776357e-015
      vertex  1.832422e+000 -2.375338e+000 -1.776357e-015
    endloop
  endfacet
  facet normal  5.468020e-001 -8.372619e-001  0.000000e+000
    outer loop
      vertex  1.832422e+000 -2.375338e+000 -1.200000e+000
      vertex  1.832422e+000 -2.375338e+000 -1.776357e-015
      vertex  1.438277e+000 -2.632748e+000 -1.200000e+000
    endloop
  endfacet
  facet normal  5.468020e-001 -8.372619e-001  0.000000e+000
    outer loop
      vertex  1.438277e+000 -2.632748e+000 -1.200000e+000
      vertex  1.832422e+000 -2.375338e+000 -1.776357e-015
      vertex  1.438277e+000 -2.632748e+000 -1.776357e-015
    endloop
  endfacet
  facet normal  3.964076e-001 -9.180747e-001  0.000000e+000
    outer loop
      vertex  1.054736e+000 -1.930682e+000  0.000000e+000
      vertex  1.054736e+000 -1.930682e+000  1.400000e+001
      vertex  6.820155e-001 -2.091615e+000  0.000000e+000
    endloop
  endfacet
  facet normal  3.964076e-001 -9.180747e-001  0.000000e+000
    outer loop
      vertex  6.820155e-001 -2.091615e+000  0.000000e+000
      vertex  1.054736e+000 -1.930682e+000  1.400000e+001
      vertex  6.820155e-001 -2.091615e+000  1.400000e+001
    endloop
  endfacet
  facet normal  2.209617e-001 -9.752825e-001  0.000000e+000
    outer loop
      vertex  6.820155e-001 -2.091615e+000  0.000000e+000
      vertex  6.820155e-001 -2.091615e+000  1.400000e+001
      vertex  2.860695e-001 -2.181322e+000  0.000000e+000
    endloop
  endfacet
  facet normal  2.209617e-001 -9.752825e-001  0.000000e+000
    outer loop
      vertex  2.860695e-001 -2.181322e+000  0.000000e+000
      vertex  6.820155e-001 -2.091615e+000  1.400000e+001
      vertex  2.860695e-001 -2.181322e+000  1.400000e+001
    endloop
  endfacet
  facet normal  3.799198e-002 -9.992781e-001  0.000000e+000
    outer loop
      vertex  2.860695e-001 -2.181322e+000  0.000000e+000
      vertex  2.860695e-001 -2.181322e+000  1.400000e+001
      vertex -1.196181e-001 -2.196746e+000  0.000000e+000
    endloop
  endfacet
  facet normal  3.799198e-002 -9.992781e-001  0.000000e+000
    outer loop
      vertex -1.196181e-001 -2.196746e+000  0.000000e+000
      vertex  2.860695e-001 -2.181322e+000  1.400000e+001
      vertex -1.196181e-001 -2.196746e+000  1.400000e+001
    endloop
  endfacet
  facet normal -1.462720e-001 -9.892444e-001  -0.000000e+000
    outer loop
      vertex -1.196181e-001 -2.196746e+000  0.000000e+000
      vertex -1.196181e-001 -2.196746e+000  1.400000e+001
      vertex -5.212324e-001 -2.137362e+000  0.000000e+000
    endloop
  endfacet
  facet normal -1.462720e-001 -9.892444e-001  0.000000e+000
    outer loop
      vertex -5.212324e-001 -2.137362e+000  0.000000e+000
      vertex -1.196181e-001 -2.196746e+000  1.400000e+001
      vertex -5.212324e-001 -2.137362e+000  1.400000e+001
    endloop
  endfacet
  facet normal -3.255543e-001 -9.455234e-001  -0.000000e+000
    outer loop
      vertex -5.212324e-001 -2.137362e+000  0.000000e+000
      vertex -5.212324e-001 -2.137362e+000  1.400000e+001
      vertex -9.050967e-001 -2.005193e+000  0.000000e+000
    endloop
  endfacet
  facet normal -3.255543e-001 -9.455234e-001  0.000000e+000
    outer loop
      vertex -9.050967e-001 -2.005193e+000  0.000000e+000
      vertex -5.212324e-001 -2.137362e+000  1.400000e+001
      vertex -9.050967e-001 -2.005193e+000  1.400000e+001
    endloop
  endfacet
  facet normal -4.937506e-001 -8.696036e-001  -0.000000e+000
    outer loop
      vertex -9.050967e-001 -2.005193e+000  0.000000e+000
      vertex -9.050967e-001 -2.005193e+000  1.400000e+001
      vertex -1.258139e+000 -1.804740e+000  0.000000e+000
    endloop
  endfacet
  facet normal -4.937506e-001 -8.696036e-001  0.000000e+000
    outer loop
      vertex -1.258139e+000 -1.804740e+000  0.000000e+000
      vertex -9.050967e-001 -2.005193e+000  1.400000e+001
      vertex -1.258139e+000 -1.804740e+000  1.400000e+001
    endloop
  endfacet
  facet normal -6.451329e-001 -7.640703e-001  -0.000000e+000
    outer loop
      vertex -1.258139e+000 -1.804740e+000  0.000000e+000
      vertex -1.258139e+000 -1.804740e+000  1.400000e+001
      vertex -1.568337e+000 -1.542828e+000  0.000000e+000
    endloop
  endfacet
  facet normal -6.451329e-001 -7.640703e-001  0.000000e+000
    outer loop
      vertex -1.568337e+000 -1.542828e+000  0.000000e+000
      vertex -1.258139e+000 -1.804740e+000  1.400000e+001
      vertex -1.568337e+000 -1.542828e+000  1.400000e+001
    endloop
  endfacet
  facet normal -7.745458e-001 -6.325177e-001  -0.000000e+000
    outer loop
      vertex -1.568337e+000 -1.542828e+000  0.000000e+000
      vertex -1.568337e+000 -1.542828e+000  1.400000e+001
      vertex -1.825127e+000 -1.228378e+000  0.000000e+000
    endloop
  endfacet
  facet normal -7.745458e-001 -6.325177e-001  0.000000e+000
    outer loop
      vertex -1.825127e+000 -1.228378e+000  0.000000e+000
      vertex -1.568337e+000 -1.542828e+000  1.400000e+001
      vertex -1.825127e+000 -1.228378e+000  1.400000e+001
    endloop
  endfacet
  facet normal -8.775826e-001 -4.794256e-001  -0.000000e+000
    outer loop
      vertex -1.825127e+000 -1.228378e+000  0.000000e+000
      vertex -1.825127e+000 -1.228378e+000  1.400000e+001
      vertex -2.019764e+000 -8.720961e-001  0.000000e+000
    endloop
  endfacet
  facet normal -8.775826e-001 -4.794256e-001  0.000000e+000
    outer loop
      vertex -2.019764e+000 -8.720961e-001  0.000000e+000
      vertex -1.825127e+000 -1.228378e+000  1.400000e+001
      vertex -2.019764e+000 -8.720961e-001  1.400000e+001
    endloop
  endfacet
  facet normal -9.507343e-001 -3.100070e-001  -0.000000e+000
    outer loop
      vertex -2.019764e+000 -8.720961e-001  0.000000e+000
      vertex -2.019764e+000 -8.720961e-001  1.400000e+001
      vertex -2.145621e+000 -4.861162e-001  0.000000e+000
    endloop
  endfacet
  facet normal -9.507343e-001 -3.100070e-001  0.000000e+000
    outer loop
      vertex -2.145621e+000 -4.861162e-001  0.000000e+000
      vertex -2.019764e+000 -8.720961e-001  1.400000e+001
      vertex -2.145621e+000 -4.861162e-001  1.400000e+001
    endloop
  endfacet
  facet normal -9.915098e-001 -1.300318e-001  -0.000000e+000
    outer loop
      vertex -2.145621e+000 -4.861162e-001  0.000000e+000
      vertex -2.145621e+000 -4.861162e-001  1.400000e+001
      vertex -2.198412e+000 -8.358226e-002  0.000000e+000
    endloop
  endfacet
  facet normal -9.915098e-001 -1.300318e-001  0.000000e+000
    outer loop
      vertex -2.198412e+000 -8.358226e-002  0.000000e+000
      vertex -2.145621e+000 -4.861162e-001  1.400000e+001
      vertex -2.198412e+000 -8.358226e-002  1.400000e+001
    endloop
  endfacet
  facet normal -9.985208e-001  5.437200e-002  0.000000e+000
    outer loop
      vertex -2.198412e+000 -8.358226e-002  0.000000e+000
      vertex -2.198412e+000 -8.358226e-002  1.400000e+001
      vertex -2.176338e+000  3.217980e-001  0.000000e+000
    endloop
  endfacet
  facet normal -9.985208e-001  5.437200e-002  0.000000e+000
    outer loop
      vertex -2.176338e+000  3.217980e-001  0.000000e+000
      vertex -2.198412e+000 -8.358226e-002  1.400000e+001
      vertex -2.176338e+000  3.217980e-001  1.400000e+001
    endloop
  endfacet
  facet normal -9.715283e-001  2.369235e-001  0.000000e+000
    outer loop
      vertex -2.176338e+000  3.217980e-001  0.000000e+000
      vertex -2.176338e+000  3.217980e-001  1.400000e+001
      vertex -2.080151e+000  7.162198e-001  0.000000e+000
    endloop
  endfacet
  facet normal -9.715283e-001  2.369235e-001  0.000000e+000
    outer loop
      vertex -2.080151e+000  7.162198e-001  0.000000e+000
      vertex -2.176338e+000  3.217980e-001  1.400000e+001
      vertex -2.080151e+000  7.162198e-001  1.400000e+001
    endloop
  endfacet
  facet normal -9.114515e-001  4.114077e-001  0.000000e+000
    outer loop
      vertex -2.080151e+000  7.162198e-001  0.000000e+000
      vertex -2.080151e+000  7.162198e-001  1.400000e+001
      vertex -1.913128e+000  1.086252e+000  0.000000e+000
    endloop
  endfacet
  facet normal -9.114515e-001  4.114077e-001  0.000000e+000
    outer loop
      vertex -1.913128e+000  1.086252e+000  0.000000e+000
      vertex -2.080151e+000  7.162198e-001  1.400000e+001
      vertex -1.913128e+000  1.086252e+000  1.400000e+001
    endloop
  endfacet
  facet normal -8.203363e-001  5.718815e-001  0.000000e+000
    outer loop
      vertex -1.913128e+000  1.086252e+000  0.000000e+000
      vertex -1.913128e+000  1.086252e+000  1.400000e+001
      vertex -1.680955e+000  1.419292e+000  0.000000e+000
    endloop
  endfacet
  facet normal -8.203363e-001  5.718815e-001  0.000000e+000
    outer loop
      vertex -1.680955e+000  1.419292e+000  0.000000e+000
      vertex -1.913128e+000  1.086252e+000  1.400000e+001
      vertex -1.680955e+000  1.419292e+000  1.400000e+001
    endloop
  endfacet
  facet normal -7.012857e-001  7.128804e-001  0.000000e+000
    outer loop
      vertex -1.680955e+000  1.419292e+000  0.000000e+000
      vertex -1.680955e+000  1.419292e+000  1.400000e+001
      vertex -1.391539e+000  1.704001e+000  0.000000e+000
    endloop
  endfacet
  facet normal -7.012857e-001  7.128804e-001  0.000000e+000
    outer loop
      vertex -1.391539e+000  1.704001e+000  0.000000e+000
      vertex -1.680955e+000  1.419292e+000  1.400000e+001
      vertex -1.391539e+000  1.704001e+000  1.400000e+001
    endloop
  endfacet
  facet normal -5.583534e-001  8.296032e-001  0.000000e+000
    outer loop
      vertex -1.391539e+000  1.704001e+000  0.000000e+000
      vertex -1.391539e+000  1.704001e+000  1.400000e+001
      vertex -1.054736e+000  1.930682e+000  0.000000e+000
    endloop
  endfacet
  facet normal -5.583534e-001  8.296032e-001  0.000000e+000
    outer loop
      vertex -1.054736e+000  1.930682e+000  0.000000e+000
      vertex -1.391539e+000  1.704001e+000  1.400000e+001
      vertex -1.054736e+000  1.930682e+000  1.400000e+001
    endloop
  endfacet
  facet normal  4.090934e-001 -9.124925e-001  0.000000e+000
    outer loop
      vertex  1.438277e+000 -2.632748e+000 -1.200000e+000
      vertex  1.438277e+000 -2.632748e+000 -1.776357e-015
      vertex  1.008717e+000 -2.825330e+000 -1.200000e+000
    endloop
  endfacet
  facet normal  4.090934e-001 -9.124925e-001  0.000000e+000
    outer loop
      vertex  1.008717e+000 -2.825330e+000 -1.200000e+000
      vertex  1.438277e+000 -2.632748e+000 -1.776357e-015
      vertex  1.008717e+000 -2.825330e+000 -1.776357e-015
    endloop
  endfacet
  facet normal  2.613113e-001 -9.652546e-001  0.000000e+000
    outer loop
      vertex  1.008717e+000 -2.825330e+000 -1.200000e+000
      vertex  1.008717e+000 -2.825330e+000 -1.776357e-015
      vertex  5.543185e-001 -2.948344e+000 -1.200000e+000
    endloop
  endfacet
  facet normal  2.613113e-001 -9.652546e-001  0.000000e+000
    outer loop
      vertex  5.543185e-001 -2.948344e+000 -1.200000e+000
      vertex  1.008717e+000 -2.825330e+000 -1.776357e-015
      vertex  5.543185e-001 -2.948344e+000 -1.776357e-015
    endloop
  endfacet
  facet normal  1.070951e-001 -9.942488e-001  0.000000e+000
    outer loop
      vertex  5.543185e-001 -2.948344e+000 -1.200000e+000
      vertex  5.543185e-001 -2.948344e+000 -1.776357e-015
      vertex  8.627141e-002 -2.998759e+000 -1.200000e+000
    endloop
  endfacet
  facet normal  1.070951e-001 -9.942488e-001  0.000000e+000
    outer loop
      vertex  8.627141e-002 -2.998759e+000 -1.200000e+000
      vertex  5.543185e-001 -2.948344e+000 -1.776357e-015
      vertex  8.627141e-002 -2.998759e+000 -1.776357e-015
    endloop
  endfacet
  facet normal -4.975822e-002 -9.987613e-001  -0.000000e+000
    outer loop
      vertex  8.627141e-002 -2.998759e+000 -1.200000e+000
      vertex  8.627141e-002 -2.998759e+000 -1.776357e-015
      vertex -3.839000e-001 -2.975335e+000 -1.200000e+000
    endloop
  endfacet
  facet normal -4.975822e-002 -9.987613e-001  0.000000e+000
    outer loop
      vertex -3.839000e-001 -2.975335e+000 -1.200000e+000
      vertex  8.627141e-002 -2.998759e+000 -1.776357e-015
      vertex -3.839000e-001 -2.975335e+000 -1.776357e-015
    endloop
  endfacet
  facet normal -2.053859e-001 -9.786810e-001  -0.000000e+000
    outer loop
      vertex -3.839000e-001 -2.975335e+000 -1.200000e+000
      vertex -3.839000e-001 -2.975335e+000 -1.776357e-015
      vertex -8.446186e-001 -2.878649e+000 -1.200000e+000
    endloop
  endfacet
  facet normal -2.053859e-001 -9.786810e-001  0.000000e+000
    outer loop
      vertex -8.446186e-001 -2.878649e+000 -1.200000e+000
      vertex -3.839000e-001 -2.975335e+000 -1.776357e-015
      vertex -8.446186e-001 -2.878649e+000 -1.776357e-015
    endloop
  endfacet
  facet normal -3.559572e-001 -9.345023e-001  -0.000000e+000
    outer loop
      vertex -8.446186e-001 -2.878649e+000 -1.200000e+000
      vertex -8.446186e-001 -2.878649e+000 -1.776357e-015
      vertex -1.284540e+000 -2.711081e+000 -1.200000e+000
    endloop
  endfacet
  facet normal -3.559572e-001 -9.345023e-001  0.000000e+000
    outer loop
      vertex -1.284540e+000 -2.711081e+000 -1.200000e+000
      vertex -8.446186e-001 -2.878649e+000 -1.776357e-015
      vertex -1.284540e+000 -2.711081e+000 -1.776357e-015
    endloop
  endfacet
  facet normal -4.977630e-001 -8.673130e-001  -0.000000e+000
    outer loop
      vertex -1.284540e+000 -2.711081e+000 -1.200000e+000
      vertex -1.284540e+000 -2.711081e+000 -1.776357e-015
      vertex -1.692831e+000 -2.476756e+000 -1.200000e+000
    endloop
  endfacet
  facet normal -4.977630e-001 -8.673130e-001  0.000000e+000
    outer loop
      vertex -1.692831e+000 -2.476756e+000 -1.200000e+000
      vertex -1.284540e+000 -2.711081e+000 -1.776357e-015
      vertex -1.692831e+000 -2.476756e+000 -1.776357e-015
    endloop
  endfacet
  facet normal -6.273125e-001 -7.787677e-001  -0.000000e+000
    outer loop
      vertex -1.692831e+000 -2.476756e+000 -1.200000e+000
      vertex -1.692831e+000 -2.476756e+000 -1.776357e-015
      vertex -2.059440e+000 -2.181446e+000 -1.200000e+000
    endloop
  endfacet
  facet normal -6.273125e-001 -7.787677e-001  0.000000e+000
    outer loop
      vertex -2.059440e+000 -2.181446e+000 -1.200000e+000
      vertex -1.692831e+000 -2.476756e+000 -1.776357e-015
      vertex -2.059440e+000 -2.181446e+000 -1.776357e-015
    endloop
  endfacet
  facet normal -7.414152e-001 -6.710466e-001  -0.000000e+000
    outer loop
      vertex -2.059440e+000 -2.181446e+000 -1.200000e+000
      vertex -2.059440e+000 -2.181446e+000 -1.776357e-015
      vertex -2.375338e+000 -1.832422e+000 -1.200000e+000
    endloop
  endfacet
  facet normal -7.414152e-001 -6.710466e-001  0.000000e+000
    outer loop
      vertex -2.375338e+000 -1.832422e+000 -1.200000e+000
      vertex -2.059440e+000 -2.181446e+000 -1.776357e-015
      vertex -2.375338e+000 -1.832422e+000 -1.776357e-015
    endloop
  endfacet
  facet normal -8.372619e-001 -5.468020e-001  -0.000000e+000
    outer loop
      vertex -2.375338e+000 -1.832422e+000 -1.200000e+000
      vertex -2.375338e+000 -1.832422e+000 -1.776357e-015
      vertex -2.632748e+000 -1.438277e+000 -1.200000e+000
    endloop
  endfacet
  facet normal -8.372619e-001 -5.468020e-001  0.000000e+000
    outer loop
      vertex -2.632748e+000 -1.438277e+000 -1.200000e+000
      vertex -2.375338e+000 -1.832422e+000 -1.776357e-015
      vertex -2.632748e+000 -1.438277e+000 -1.776357e-015
    endloop
  endfacet
  facet normal -9.124925e-001 -4.090934e-001  -0.000000e+000
    outer loop
      vertex -2.632748e+000 -1.438277e+000 -1.200000e+000
      vertex -2.632748e+000 -1.438277e+000 -1.776357e-015
      vertex -2.825330e+000 -1.008717e+000 -1.200000e+000
    endloop
  endfacet
  facet normal -9.124925e-001 -4.090934e-001  0.000000e+000
    outer loop
      vertex -2.825330e+000 -1.008717e+000 -1.200000e+000
      vertex -2.632748e+000 -1.438277e+000 -1.776357e-015
      vertex -2.825330e+000 -1.008717e+000 -1.776357e-015
    endloop
  endfacet
  facet normal -9.652546e-001 -2.613113e-001  -0.000000e+000
    outer loop
      vertex -2.825330e+000 -1.008717e+000 -1.200000e+000
      vertex -2.825330e+000 -1.008717e+000 -1.776357e-015
      vertex -2.948344e+000 -5.543185e-001 -1.200000e+000
    endloop
  endfacet
  facet normal -9.652546e-001 -2.613113e-001  0.000000e+000
    outer loop
      vertex -2.948344e+000 -5.543185e-001 -1.200000e+000
      vertex -2.825330e+000 -1.008717e+000 -1.776357e-015
      vertex -2.948344e+000 -5.543185e-001 -1.776357e-015
    endloop
  endfacet
  facet normal -9.942488e-001 -1.070951e-001  -0.000000e+000
    outer loop
      vertex -2.948344e+000 -5.543185e-001 -1.200000e+000
      vertex -2.948344e+000 -5.543185e-001 -1.776357e-015
      vertex -2.998759e+000 -8.627141e-002 -1.200000e+000
    endloop
  endfacet
  facet normal -9.942488e-001 -1.070951e-001  0.000000e+000
    outer loop
      vertex -2.998759e+000 -8.627141e-002 -1.200000e+000
      vertex -2.948344e+000 -5.543185e-001 -1.776357e-015
      vertex -2.998759e+000 -8.627141e-002 -1.776357e-015
    endloop
  endfacet
  facet normal -9.987613e-001  4.975822e-002  0.000000e+000
    outer loop
      vertex -2.998759e+000 -8.627141e-002 -1.200000e+000
      vertex -2.998759e+000 -8.627141e-002 -1.776357e-015
      vertex -2.975335e+000  3.839000e-001 -1.200000e+000
    endloop
  endfacet
  facet normal -9.987613e-001  4.975822e-002  0.000000e+000
    outer loop
      vertex -2.975335e+000  3.839000e-001 -1.200000e+000
      vertex -2.998759e+000 -8.627141e-002 -1.776357e-015
      vertex -2.975335e+000  3.839000e-001 -1.776357e-015
    endloop
  endfacet
  facet normal -9.786810e-001  2.053859e-001  0.000000e+000
    outer loop
      vertex -2.975335e+000  3.839000e-001 -1.200000e+000
      vertex -2.975335e+000  3.839000e-001 -1.776357e-015
      vertex -2.878649e+000  8.446186e-001 -1.200000e+000
    endloop
  endfacet
  facet normal -9.786810e-001  2.053859e-001  0.000000e+000
    outer loop
      vertex -2.878649e+000  8.446186e-001 -1.200000e+000
      vertex -2.975335e+000  3.839000e-001 -1.776357e-015
      vertex -2.878649e+000  8.446186e-001 -1.776357e-015
    endloop
  endfacet
  facet normal -9.345023e-001  3.559572e-001  0.000000e+000
    outer loop
      vertex -2.878649e+000  8.446186e-001 -1.200000e+000
      vertex -2.878649e+000  8.446186e-001 -1.776357e-015
      vertex -2.711081e+000  1.284540e+000 -1.200000e+000
    endloop
  endfacet
  facet normal -9.345023e-001  3.559572e-001  0.000000e+000
    outer loop
      vertex -2.711081e+000  1.284540e+000 -1.200000e+000
      vertex -2.878649e+000  8.446186e-001 -1.776357e-015
      vertex -2.711081e+000  1.284540e+000 -1.776357e-015
    endloop
  endfacet
  facet normal -8.673130e-001  4.977630e-001  0.000000e+000
    outer loop
      vertex -2.711081e+000  1.284540e+000 -1.200000e+000
      vertex -2.711081e+000  1.284540e+000 -1.776357e-015
      vertex -2.476756e+000  1.692831e+000 -1.200000e+000
    endloop
  endfacet
  facet normal -8.673130e-001  4.977630e-001  0.000000e+000
    outer loop
      vertex -2.476756e+000  1.692831e+000 -1.200000e+000
      vertex -2.711081e+000  1.284540e+000 -1.776357e-015
      vertex -2.476756e+000  1.692831e+000 -1.776357e-015
    endloop
  endfacet
  facet normal -7.787677e-001  6.273125e-001  0.000000e+000
    outer loop
      vertex -2.476756e+000  1.692831e+000 -1.200000e+000
      vertex -2.476756e+000  1.692831e+000 -1.776357e-015
      vertex -2.181446e+000  2.059440e+000 -1.200000e+000
    endloop
  endfacet
  facet normal -7.787677e-001  6.273125e-001  0.000000e+000
    outer loop
      vertex -2.181446e+000  2.059440e+000 -1.200000e+000
      vertex -2.476756e+000  1.692831e+000 -1.776357e-015
      vertex -2.181446e+000  2.059440e+000 -1.776357e-015
    endloop
  endfacet
  facet normal -6.710466e-001  7.414152e-001  0.000000e+000
    outer loop
      vertex -2.181446e+000  2.059440e+000 -1.200000e+000
      vertex -2.181446e+000  2.059440e+000 -1.776357e-015
      vertex -1.832422e+000  2.375338e+000 -1.200000e+000
    endloop
  endfacet
  facet normal -6.710466e-001  7.414152e-001  0.000000e+000
    outer loop
      vertex -1.832422e+000  2.375338e+000 -1.200000e+000
      vertex -2.181446e+000  2.059440e+000 -1.776357e-015
      vertex -1.832422e+000  2.375338e+000 -1.776357e-015
    endloop
  endfacet
  facet normal -5.468020e-001  8.372619e-001  0.000000e+000
    outer loop
      vertex -1.832422e+000  2.375338e+000 -1.200000e+000
      vertex -1.832422e+000  2.375338e+000 -1.776357e-015
      vertex -1.438277e+000  2.632748e+000 -1.200000e+000
    endloop
  endfacet
  facet normal -5.468020e-001  8.372619e-001  0.000000e+000
    outer loop
      vertex -1.438277e+000  2.632748e+000 -1.200000e+000
      vertex -1.832422e+000  2.375338e+000 -1.776357e-015
      vertex -1.438277e+000  2.632748e+000 -1.776357e-015
    endloop
  endfacet
endsolid CATIA STL
